<?xml version="1.0" encoding="UTF-8" standalone="no"?>
<svg
   version="1.1"
   width="883.79553"
   height="876.18658"
   style="clip-rule:evenodd;fill-rule:evenodd;image-rendering:optimizeQuality;shape-rendering:geometricPrecision;text-rendering:geometricPrecision"
   id="svg4"
   sodipodi:docname="Gemini_Generated_Image_3wdnpm3wdnpm3wdn.svg"
   inkscape:version="1.4.3 (0d15f75042, 2025-12-25)"
   xmlns:inkscape="http://www.inkscape.org/namespaces/inkscape"
   xmlns:sodipodi="http://sodipodi.sourceforge.net/DTD/sodipodi-0.dtd"
   xmlns="http://www.w3.org/2000/svg"
   xmlns:svg="http://www.w3.org/2000/svg">
  <defs
     id="defs4" />
  <sodipodi:namedview
     id="namedview4"
     pagecolor="#ffffff"
     bordercolor="#000000"
     borderopacity="0.25"
     inkscape:showpageshadow="2"
     inkscape:pageopacity="0.0"
     inkscape:pagecheckerboard="0"
     inkscape:deskcolor="#d1d1d1"
     inkscape:zoom="1.124878"
     inkscape:cx="399.15438"
     inkscape:cy="389.82003"
     inkscape:window-width="3440"
     inkscape:window-height="1371"
     inkscape:window-x="0"
     inkscape:window-y="0"
     inkscape:window-maximized="1"
     inkscape:current-layer="svg4" />
  <g
     id="g1"
     style="display:inline;fill:#34d399;fill-opacity:1"
     transform="translate(-123.49975,-122.31339)">
    <path
       style="opacity:1;fill:#34d399;fill-opacity:1"
       fill="#f9faf9"
       d="m 487.5,122.5 c 118.964,-3.448 215.464,40.885 289.5,133 35.612,49.371 57.612,104.371 66,165 26.009,6.009 42.009,22.009 48,48 0.969,37.705 0.635,75.372 -1,113 -5.255,18.258 -16.589,31.258 -34,39 -2.091,-3.345 -3.424,-7.012 -4,-11 -4.921,-23.274 -9.588,-46.607 -14,-70 -6.96,-23.73 -22.793,-35.063 -47.5,-34 4.05,-55.817 -3.783,-109.817 -23.5,-162 C 728.336,262.228 665.503,209.728 578.5,186 c -98.653,-22.085 -186.32,-0.751 -263,64 -55.271,51.718 -85.437,115.552 -90.5,191.5 -0.667,53.667 -0.667,107.333 0,161 5.985,84.847 44.818,149.68 116.5,194.5 30.547,18.127 63.547,28.293 99,30.5 45.16,0.319 90.494,-0.014 136,-1 19.744,-72.394 39.578,-144.727 59.5,-217 3.967,-7.329 10.133,-10.496 18.5,-9.5 7.833,1.833 12.667,6.667 14.5,14.5 11.66,63.959 23.327,127.959 35,192 4.747,23.738 9.747,47.405 15,71 20.598,-111.655 40.932,-223.321 61,-335 2.98,-9.009 9.313,-13.676 19,-14 7.052,1.38 12.052,5.38 15,12 17.974,85.034 36.14,170.034 54.5,255 4.241,-8.815 8.741,-17.482 13.5,-26 2.928,-3.881 6.761,-6.381 11.5,-7.5 11.909,-0.178 23.742,-0.678 35.5,-1.5 21.103,0.597 42.603,1.097 64.5,1.5 12.02,4.537 16.18,13.037 12.5,25.5 -2.62,4.616 -6.451,7.783 -11.5,9.5 -25.357,0.185 -50.69,0.685 -76,1.5 -3.061,-0.779 -6.061,-1.112 -9,-1 -1.248,0.54 -2.415,1.207 -3.5,2 -9.824,19.651 -20.158,38.984 -31,58 -10.241,8.43 -19.908,7.764 -29,-2 -1.562,-2.457 -2.562,-5.124 -3,-8 -14.881,-68.303 -29.547,-136.636 -44,-205 -21.139,111.562 -41.806,223.228 -62,335 -0.747,11.907 -6.914,18.907 -18.5,21 -7.372,-0.775 -12.872,-4.442 -16.5,-11 -18.111,-95.668 -36.111,-191.335 -54,-287 -13.508,49.699 -27.175,99.366 -41,149 -2.651,7.314 -7.818,11.814 -15.5,13.5 -57,0.667 -114,0.667 -171,0 C 311.637,852.018 235.47,796.518 192,696.5 c -9.025,-23.237 -14.858,-47.237 -17.5,-72 -26.973,-4.808 -43.807,-20.474 -50.5,-47 -0.667,-36.333 -0.667,-72.667 0,-109 4.436,-20.103 15.936,-34.603 34.5,-43.5 4.734,-0.877 9.234,-2.377 13.5,-4.5 13.199,-100.946 61.032,-180.779 143.5,-239.5 52.077,-34.855 109.411,-54.355 172,-58.5 z"
       id="path1" />
  </g>
  <g
     id="g2"
     style="fill:none"
     transform="translate(-123.49975,-122.31339)">
    <path
       style="opacity:1;fill:#34d399;fill-opacity:1"
       fill="#f9faf9"
       d="m 374.5,421.5 c 24.049,0.208 38.215,12.208 42.5,36 0.667,13.333 0.667,26.667 0,40 -4.882,26.253 -20.382,37.753 -46.5,34.5 -16.155,-5.832 -25.322,-17.332 -27.5,-34.5 -0.667,-14.333 -0.667,-28.667 0,-43 3.953,-17.45 14.453,-28.45 31.5,-33 z"
       id="path2"
       inkscape:label="path2" />
  </g>
  <g
     id="g3"
     transform="translate(-123.49975,-122.31339)">
    <path
       style="opacity:1;fill:#34d399;fill-opacity:1"
       fill="#f9faf9"
       d="m 628.5,421.5 c 23.554,-0.301 38.054,11.032 43.5,34 0.667,14.333 0.667,28.667 0,43 -2.834,14.522 -10.668,25.355 -23.5,32.5 -28.86,5.631 -45.694,-6.202 -50.5,-35.5 -0.667,-13 -0.667,-26 0,-39 3.335,-17.823 13.502,-29.49 30.5,-35 z"
       id="path3" />
  </g>
  <g
     id="g4"
     transform="translate(-123.49975,-122.31339)">
    <path
       style="opacity:1;fill:#34d399;fill-opacity:1"
       fill="#f9faf9"
       d="m 431.5,671.5 c 2.427,0.023 4.76,0.523 7,1.5 30.75,18.524 63.417,22.857 98,13 11.412,-4.46 22.578,-9.294 33.5,-14.5 15.004,3.675 19.671,12.675 14,27 -31.195,22.84 -66.028,31.34 -104.5,25.5 -17.808,-3.269 -34.808,-8.936 -51,-17 -3.958,-2.234 -7.458,-5.067 -10.5,-8.5 -5.584,-14.165 -1.084,-23.165 13.5,-27 z"
       id="path4" />
  </g>
</svg>
